# xmcd CD database file
#
# Track frame offsets:
#	150
#	29054
#	52458
#	91124
#	104205
#	130177
#	175425
#	209942
#	237105
#
# Disc length: 4797 seconds
#
# Revision: 0
# Processed by: cddbd v1.5.1PL0 Copyright (c) Steve Scherf et al.
# Submitted via: CDex 1.51
#
DISCID=9012bb09
DTITLE=Rory Gallagher - Live in Europe
DYEAR=1972
DGENRE=Blues
TTITLE0=Messin' with the kid
TTITLE1=Laundromat
TTITLE2=I could've had religion
TTITLE3=Pistol slapper blues
TTITLE4=Going to my home town
TTITLE5=In your town
TTITLE6=What in the world
TTITLE7=Hoodoo man
TTITLE8=Bullfrog blues
EXTD=YEAR: 1972
EXTT0=
EXTT1=
EXTT2=
EXTT3=
EXTT4=
EXTT5=
EXTT6=
EXTT7=
EXTT8=
PLAYORDER=
